<?xml version="1.0" encoding="iso-8859-1"?>
<!-- Generator: Adobe Illustrator 19.0.0, SVG Export Plug-In . SVG Version: 6.00 Build 0)  -->
<svg version="1.1" id="Layer_1" xmlns="http://www.w3.org/2000/svg" xmlns:xlink="http://www.w3.org/1999/xlink" x="0px" y="0px"
	 viewBox="0 0 497.6 497.6" style="enable-background:new 0 0 497.6 497.6;" xml:space="preserve">
<path style="fill:#FFFCEE;" d="M98.8,65.6v388.8c0,32.8,28.8,43.2,61.6,43.2h148c32.8,0,62.4-10.4,62.4-43.2V65.6H98.8z"/>
<path style="fill:#E8E3CD;" d="M308.4,497.6c32.8,0,62.4-10.4,62.4-43.2V65.6h-272"/>
<path style="fill:#F4CF31;" d="M122.8,137.6V440c0,27.2,23.2,33.6,50.4,33.6h121.6c27.2,0,52-6.4,52-33.6V137.6H122.8z"/>
<path style="fill:#F2B233;" d="M294.8,473.6c27.2,0,52-6.4,52-33.6V137.6h-224"/>
<g>
	<path style="fill:#F7DF77;" d="M178.8,425.6c0,7.2-3.2,13.6-8,13.6l0,0c-4.8,0-8-6.4-8-13.6V112.8c0-7.2,3.2-13.6,8-13.6l0,0
		c4.8,0,8,6.4,8,13.6V425.6z"/>
	<path style="fill:#F7DF77;" d="M242.8,425.6c0,7.2-3.2,13.6-8,13.6l0,0c-4.8,0-8-6.4-8-13.6V112.8c0-7.2,3.2-13.6,8-13.6l0,0
		c4.8,0,8,6.4,8,13.6V425.6z"/>
	<path style="fill:#F7DF77;" d="M306.8,425.6c0,7.2-3.2,13.6-8,13.6l0,0c-4.8,0-8-6.4-8-13.6V112.8c0-7.2,3.2-13.6,8-13.6l0,0
		c4.8,0,8,6.4,8,13.6V425.6z"/>
</g>
<circle style="fill:#FCF0BE;" cx="200.4" cy="74.4" r="42.4"/>
<path style="fill:#F9F9D9;" d="M376.4,48.8c4-4.8,6.4-11.2,6.4-17.6c0-16-12.8-29.6-29.6-29.6C346,1.6,340.4,4,334.8,8
	c-5.6-3.2-12-5.6-18.4-5.6c-8.8,0-16.8,3.2-23.2,8.8C287.6,4.8,279.6,0,270.8,0c-6.4,0-12.8,2.4-17.6,5.6C250,4,246,3.2,242,3.2
	c-3.2,0-5.6,0.8-8,1.6c-2.4-0.8-5.6-1.6-8-1.6c-4,0-7.2,0.8-11.2,2.4C210,1.6,203.6,0,197.2,0c-8.8,0-17.6,4-22.4,11.2
	c-6.4-5.6-14.4-8.8-23.2-8.8c-7.2,0-13.6,2.4-18.4,5.6c-4.8-4-11.2-6.4-18.4-6.4c-16,0-29.6,12.8-29.6,29.6c0,6.4,2.4,12.8,6.4,17.6
	c-8,8-12.8,18.4-12.8,30.4c0,23.2,19.2,42.4,42.4,42.4c5.6,0,11.2-0.8,16-3.2c8,9.6,19.2,16,32.8,16c14.4,0,27.2-7.2,34.4-18.4
	c4.8,8,13.6,13.6,23.2,13.6c2.4,0,4,0,6.4-0.8c2.4,0.8,4,0.8,6.4,0.8c9.6,0,18.4-5.6,23.2-13.6c8,11.2,20,18.4,34.4,18.4
	c13.6,0,24.8-6.4,32.8-16c4.8,2.4,10.4,3.2,16,3.2c23.2,0,42.4-19.2,42.4-42.4C389.2,67.2,384.4,56.8,376.4,48.8z"/>
<circle style="fill:#FFF399;" cx="206" cy="182.4" r="8"/>
<circle style="fill:#F2B233;" cx="198.8" cy="373.6" r="8"/>
<g>
	<circle style="fill:#FFF399;" cx="196.4" cy="213.6" r="4.8"/>
	<circle style="fill:#FFF399;" cx="192.4" cy="316" r="4.8"/>
	<circle style="fill:#FFF399;" cx="205.2" cy="231.2" r="4"/>
</g>
<circle style="fill:#F2B233;" cx="189.2" cy="296.8" r="4"/>
<g>
	<circle style="fill:#FFF399;" cx="214.8" cy="354.4" r="2.4"/>
	<circle style="fill:#FFF399;" cx="197.2" cy="341.6" r="2.4"/>
</g>
<circle style="fill:#F2B233;" cx="202" cy="325.6" r="2.4"/>
<g>
	<path style="fill:#FFF0B3;" d="M138.8,437.6c0,2.4-1.6,4-4,4l0,0c-2.4,0-4-1.6-4-4v-176c0-2.4,1.6-4,4-4l0,0c2.4,0,4,1.6,4,4V437.6
		z"/>
	<path style="fill:#FFF0B3;" d="M138.8,239.2c0,0.8-0.8,1.6-4,1.6l0,0c-3.2,0-4-0.8-4-1.6v-57.6c0-0.8,0.8-1.6,4-1.6l0,0
		c3.2,0,4,0.8,4,1.6V239.2z"/>
</g>
<path style="fill:#FCF0BE;" d="M376.4,48.8c4-4.8,6.4-11.2,6.4-17.6c0-16-12.8-29.6-29.6-29.6C346,1.6,340.4,4,334.8,8
	c-5.6-3.2-12-5.6-18.4-5.6c-8.8,0-16.8,3.2-23.2,8.8C287.6,4.8,279.6,0,270.8,0c-6.4,0-12.8,2.4-17.6,5.6C250,4,246,3.2,242,3.2
	c-2.4,0-7.2,0.8-7.2,0.8v123.2c0,0,4,0.8,5.6,0.8c9.6,0,18.4-5.6,23.2-13.6c8,11.2,20,18.4,34.4,18.4c13.6,0,24.8-6.4,32.8-16
	c4.8,2.4,10.4,3.2,16,3.2c23.2,0,42.4-19.2,42.4-42.4C389.2,67.2,384.4,56.8,376.4,48.8z"/>
<path style="fill:#FFFCEE;" d="M370,144c-0.8,0,0.8,0,0.8,0v24c0,0,1.6,0,2.4,0c16,0,29.6,12.8,29.6,28.8v157.6
	c0,16-13.6,28.8-29.6,28.8c-0.8,0-2.4,0-2.4,0v24c0,0-1.6,0-0.8,0c28.8,0,48.8-23.2,48.8-52.8V196.8C418.8,167.2,398.8,144,370,144z
	"/>
<g>
	<circle style="fill:#FFFFFF;" cx="112.4" cy="25.6" r="12.8"/>
	<circle style="fill:#FFFFFF;" cx="160.4" cy="33.6" r="12.8"/>
	<circle style="fill:#FFFFFF;" cx="108.4" cy="77.6" r="7.2"/>
</g>
<g>
</g>
<g>
</g>
<g>
</g>
<g>
</g>
<g>
</g>
<g>
</g>
<g>
</g>
<g>
</g>
<g>
</g>
<g>
</g>
<g>
</g>
<g>
</g>
<g>
</g>
<g>
</g>
<g>
</g>
</svg>
