<?xml version="1.0" encoding="iso-8859-1"?>
<!-- Generator: Adobe Illustrator 19.0.0, SVG Export Plug-In . SVG Version: 6.00 Build 0)  -->
<svg version="1.1" id="Layer_1" xmlns="http://www.w3.org/2000/svg" xmlns:xlink="http://www.w3.org/1999/xlink" x="0px" y="0px"
	 viewBox="0 0 497.6 497.6" style="enable-background:new 0 0 497.6 497.6;" xml:space="preserve">
<path style="fill:#F2EAC4;" d="M428.8,40H69.6c-27.2,0-52.8,19.2-52.8,46.4v302.4L126.4,496h302.4c27.2,0,52-23.2,52-50.4V86.4
	C480.8,59.2,456,40,428.8,40z"/>
<path style="fill:#DDCE92;" d="M20,88c0-27.2,22.4-48,49.6-48h359.2c27.2,0,52,19.2,52,46.4v359.2c0,27.2-23.2,49.6-50.4,49.6"/>
<path style="fill:#32BA7C;" d="M480.8,152V86.4c0-27.2-24.8-46.4-52-46.4H69.6c-27.2,0-52.8,19.2-52.8,46.4V152H480.8z"/>
<path style="fill:#0AA06E;" d="M480.8,152V86.4c0-27.2-24.8-46.4-52-46.4h-356"/>
<polygon style="fill:#DDCE92;" points="225.6,496 127.2,396.8 72.8,442.4 126.4,496 "/>
<path style="fill:#FCF8E6;" d="M128,497.6l0.8-1.6v-94.4c0-7.2-8-9.6-15.2-9.6H20l0,0L128,497.6z"/>
<g>
	<path style="fill:#2F423F;" d="M143.2,343.2c7.2,4,24.8,11.2,41.6,11.2c21.6,0,32.8-10.4,32.8-24c0-17.6-17.6-25.6-36.8-25.6h-20
		v-32h20c14.4,0,32-4.8,32-20c0-11.2-8.8-18.4-26.4-18.4c-14.4,0-30.4,6.4-37.6,11.2l-8.8-30.4c11.2-7.2,32.8-13.6,56-13.6
		c38.4,0,60.8,20,60.8,44.8c0,19.2-8,34.4-32,41.6v0c16,4,38.4,20,38.4,44c0,32-28.8,55.2-74.4,55.2c-23.2,0-43.2-6.4-53.6-12.8
		L143.2,343.2z"/>
	<path style="fill:#2F423F;" d="M320.8,240h1.6L288,256.8l-7.2-32.8l48-24h32v184h-40V240z"/>
</g>
<path style="fill:#0AA06E;" d="M184,58.4c0,24.8-20,45.6-45.6,45.6c-24.8,0-45.6-20-45.6-45.6"/>
<path style="fill:#FCA12A;" d="M168.8,60c0,15.2-12.8,28-28,28l0,0c-15.2,0-28-12.8-28-28V28c0-15.2,12.8-28,28-28l0,0
	c15.2,0,28,12.8,28,28V60z"/>
<path style="fill:#EA860F;" d="M139.2,0.8L139.2,0.8c16,0,29.6,12.8,29.6,28.8v29.6c0,16-13.6,28.8-28.8,28.8l0,0"/>
<path style="fill:#028455;" d="M404.8,58.4c0,24.8-20,45.6-45.6,45.6c-24.8,0-45.6-20-45.6-45.6"/>
<path style="fill:#FCA12A;" d="M384.8,60c0,15.2-12.8,28-28,28l0,0c-15.2,0-28-12.8-28-28V28c0-15.2,12.8-28,28-28l0,0
	c15.2,0,28,12.8,28,28V60z"/>
<path style="fill:#EA860F;" d="M357.6,0.8L357.6,0.8c16,0,27.2,12.8,27.2,28.8v29.6c0,16-12,28.8-28,28.8l0,0"/>
<g>
</g>
<g>
</g>
<g>
</g>
<g>
</g>
<g>
</g>
<g>
</g>
<g>
</g>
<g>
</g>
<g>
</g>
<g>
</g>
<g>
</g>
<g>
</g>
<g>
</g>
<g>
</g>
<g>
</g>
</svg>
