<?xml version="1.0" encoding="iso-8859-1"?>
<!-- Generator: Adobe Illustrator 19.0.0, SVG Export Plug-In . SVG Version: 6.00 Build 0)  -->
<svg version="1.1" id="Layer_1" xmlns="http://www.w3.org/2000/svg" xmlns:xlink="http://www.w3.org/1999/xlink" x="0px" y="0px"
	 viewBox="0 0 496 496" style="enable-background:new 0 0 496 496;" xml:space="preserve">
<path style="fill:#112827;" d="M448,152.8c0,9.6-4.8,15.2-14.4,15.2H62.4c-9.6,0-14.4-5.6-14.4-15.2V136c0-9.6,4.8-16,14.4-16h371.2
	c9.6,0,14.4,6.4,14.4,16V152.8z"/>
<path style="fill:#5C605F;" d="M488,131.2c0,9.6-12,20.8-20.8,20.8H28.8C20,152,8,140.8,8,131.2V18.4C8,8.8,20,0,28.8,0h438.4
	C476,0,488,8.8,488,18.4V131.2z"/>
<path style="fill:#4B4F4E;" d="M8,18.4C8,8.8,20,0,28.8,0h438.4C476,0,488,8.8,488,18.4v112.8c0,9.6-12,20.8-20.8,20.8"/>
<g>
	<path style="fill:#112827;" d="M56,99.2c0,1.6-2.4,3.2-4,3.2l0,0c-1.6,0-4-1.6-4-3.2V49.6c0-1.6,2.4-3.2,4-3.2l0,0
		c1.6,0,4,1.6,4,3.2V99.2z"/>
	<path style="fill:#112827;" d="M80,99.2c0,1.6-2.4,3.2-4,3.2l0,0c-1.6,0-4-1.6-4-3.2V49.6c0-1.6,2.4-3.2,4-3.2l0,0
		c1.6,0,4,1.6,4,3.2V99.2z"/>
	<path style="fill:#112827;" d="M104,99.2c0,1.6-2.4,3.2-4,3.2l0,0c-1.6,0-4-1.6-4-3.2V49.6c0-1.6,2.4-3.2,4-3.2l0,0
		c1.6,0,4,1.6,4,3.2V99.2z"/>
</g>
<g>
	<path style="fill:#AFBCB8;" d="M376,76c0,2.4-1.6,4-4,4H132c-2.4,0-4-1.6-4-4l0,0c0-2.4,1.6-4,4-4h239.2C374.4,72,376,73.6,376,76
		L376,76z"/>
	<circle style="fill:#AFBCB8;" cx="374.4" cy="74.4" r="24.8"/>
</g>
<circle style="fill:#1BCC73;" cx="374.4" cy="74.4" r="12"/>
<path style="fill:#36E88F;" d="M382.4,83.2c-4.8,4.8-12,4.8-16.8,0s-4.8-12,0-16.8"/>
<path style="fill:#4AFFA8;" d="M447.2,74.4c0,6.4-5.6,12-12,12s-12-5.6-12-12s5.6-12,12-12S447.2,68,447.2,74.4z"/>
<path style="fill:#36E88F;" d="M443.2,83.2c-4.8,4.8-12,4.8-16.8,0s-4.8-12,0-16.8"/>
<path style="fill:#112827;" d="M448,315.2c0,9.6-4.8,20.8-14.4,20.8H62.4c-9.6,0-14.4-11.2-14.4-20.8v-16.8
	c0-9.6,4.8-18.4,14.4-18.4h371.2c9.6,0,14.4,8.8,14.4,18.4V315.2z"/>
<path style="fill:#5C605F;" d="M488,293.6c0,9.6-12,18.4-20.8,18.4H28.8C20,312,8,303.2,8,293.6V180.8c0-9.6,12-20.8,20.8-20.8
	h438.4c9.6,0,20.8,11.2,20.8,20.8L488,293.6L488,293.6z"/>
<path style="fill:#4B4F4E;" d="M8,180.8c0-9.6,12-20.8,20.8-20.8h438.4c9.6,0,20.8,11.2,20.8,20.8v112.8c0,9.6-12,18.4-20.8,18.4"/>
<g>
	<path style="fill:#112827;" d="M56,261.6c0,1.6-2.4,3.2-4,3.2l0,0c-1.6,0.8-4-0.8-4-3.2V212c0-1.6,2.4-3.2,4-3.2l0,0
		c1.6,0,4,1.6,4,3.2V261.6z"/>
	<path style="fill:#112827;" d="M80,260.8c0,1.6-1.6,3.2-3.2,3.2H76c-1.6,0-3.2-1.6-3.2-3.2V212c0-1.6,1.6-3.2,3.2-3.2h0.8
		c1.6,0,3.2,1.6,3.2,3.2V260.8z"/>
	<path style="fill:#112827;" d="M104,260.8c0,1.6-1.6,3.2-3.2,3.2H100c-1.6,0-3.2-1.6-3.2-3.2V212c0-1.6,1.6-3.2,3.2-3.2h0.8
		c1.6,0,3.2,1.6,3.2,3.2V260.8z"/>
</g>
<g>
	<path style="fill:#AFBCB8;" d="M373.6,236c0,2.4-1.6,4-4,4H132c-2.4,0-4-1.6-4-4l0,0c0-2.4,1.6-4,4-4h237.6
		C372,232,373.6,233.6,373.6,236L373.6,236z"/>
	<circle style="fill:#AFBCB8;" cx="374.4" cy="236.8" r="24.8"/>
</g>
<circle style="fill:#1BCC73;" cx="374.4" cy="236.8" r="12"/>
<path style="fill:#36E88F;" d="M382.4,245.6c-4.8,4.8-12,4.8-16.8,0c-4.8-4.8-4.8-12,0-16.8"/>
<path style="fill:#4AFFA8;" d="M447.2,236.8c0,6.4-5.6,12-12,12s-12-5.6-12-12s5.6-12,12-12C441.6,224.8,447.2,230.4,447.2,236.8z"
	/>
<path style="fill:#36E88F;" d="M443.2,245.6c-4.8,4.8-12,4.8-16.8,0c-4.8-4.8-4.8-12,0-16.8"/>
<path style="fill:#112827;" d="M448,477.6c0,9.6-4.8,18.4-14.4,18.4H62.4c-9.6,0-14.4-8.8-14.4-18.4v-16.8c0-8.8,4.8-12.8,14.4-12.8
	h371.2c9.6,0,14.4,4,14.4,12.8V477.6z"/>
<path style="fill:#5C605F;" d="M488,456c0,9.6-12,16-20.8,16H28.8C20,472,8,465.6,8,456V343.2c0-9.6,12-15.2,20.8-15.2h438.4
	c9.6,0,20.8,5.6,20.8,15.2L488,456L488,456z"/>
<path style="fill:#4B4F4E;" d="M8,343.2c0-9.6,12-15.2,20.8-15.2h438.4c9.6,0,20.8,5.6,20.8,15.2V456c0,9.6-12,16-20.8,16"/>
<g>
	<path style="fill:#112827;" d="M56,424c0,1.6-2.4,3.2-4,3.2l0,0c-1.6,0.8-4-0.8-4-3.2v-49.6c0-1.6,2.4-3.2,4-3.2l0,0
		c1.6,0,4,1.6,4,3.2V424z"/>
	<path style="fill:#112827;" d="M80,424c0,1.6-2.4,3.2-4,3.2l0,0c-1.6,0-4-1.6-4-3.2v-49.6c0-1.6,2.4-3.2,4-3.2l0,0
		c1.6,0,4,1.6,4,3.2V424z"/>
	<path style="fill:#112827;" d="M104,424c0,1.6-2.4,3.2-4,3.2l0,0c-1.6,0-4-1.6-4-3.2v-49.6c0-1.6,2.4-3.2,4-3.2l0,0
		c1.6,0,4,1.6,4,3.2V424z"/>
</g>
<g>
	<path style="fill:#AFBCB8;" d="M376,396c0,2.4-1.6,4-4,4H132c-2.4,0-4-1.6-4-4l0,0c0-2.4,1.6-4,4-4h239.2
		C374.4,392,376,393.6,376,396L376,396z"/>
	<circle style="fill:#AFBCB8;" cx="374.4" cy="399.2" r="24.8"/>
</g>
<circle style="fill:#1BCC73;" cx="374.4" cy="399.2" r="12"/>
<path style="fill:#36E88F;" d="M382.4,408c-4.8,4.8-12,4.8-16.8,0s-4.8-12,0-16.8"/>
<path style="fill:#4AFFA8;" d="M447.2,399.2c0,6.4-5.6,12-12,12s-12-5.6-12-12s5.6-12,12-12S447.2,392.8,447.2,399.2z"/>
<path style="fill:#36E88F;" d="M443.2,408c-4.8,4.8-12,4.8-16.8,0s-4.8-12,0-16.8"/>
<g>
</g>
<g>
</g>
<g>
</g>
<g>
</g>
<g>
</g>
<g>
</g>
<g>
</g>
<g>
</g>
<g>
</g>
<g>
</g>
<g>
</g>
<g>
</g>
<g>
</g>
<g>
</g>
<g>
</g>
</svg>
