<?xml version="1.0" encoding="iso-8859-1"?>
<!-- Generator: Adobe Illustrator 19.0.0, SVG Export Plug-In . SVG Version: 6.00 Build 0)  -->
<svg version="1.1" id="Layer_1" xmlns="http://www.w3.org/2000/svg" xmlns:xlink="http://www.w3.org/1999/xlink" x="0px" y="0px"
	 viewBox="0 0 504.024 504.024" style="enable-background:new 0 0 504.024 504.024;" xml:space="preserve">
<path id="SVGCleanerId_0" style="fill:#24A9E6;" d="M490.112,52.636c-20,12.128-42.088,20.96-65.704,25.704
	c-18.808-20.616-45.704-33.472-75.472-33.472c-57.064,0-103.36,47.472-103.36,106.016c0,8.32,0.888,16.368,2.672,24.144
	c-85.952-4.432-162.104-46.6-213.144-110.824c-8.904,15.712-14,33.952-14,53.376c0,36.776,18.128,69.216,45.88,88.232
	c-16.928-0.512-30.976-5.336-46.976-13.224v1.32c0,51.384,35.76,94.248,83.104,103.944c-8.68,2.496-17.76,3.736-27.192,3.736
	c-6.648,0-13.144-0.64-19.424-1.872c13.168,42.096,51.344,72.776,96.608,73.592c-35.368,28.456-79.992,45.416-128.416,45.416
	c-8.32,0-16.592-0.48-24.672-1.472c45.776,30.032,100.152,47.6,158.512,47.6c190.216,0,294.208-161.52,294.208-301.656
	c0-4.592-0.104-9.216-0.264-13.736c20.192-14.952,37.744-33.6,51.552-54.864c-18.512,8.424-38.464,14.136-59.384,16.688
	C466,98.156,482.4,77.372,490.112,52.636z"/>
<g>
	<path id="SVGCleanerId_0_1_" style="fill:#24A9E6;" d="M490.112,52.636c-20,12.128-42.088,20.96-65.704,25.704
		c-18.808-20.616-45.704-33.472-75.472-33.472c-57.064,0-103.36,47.472-103.36,106.016c0,8.32,0.888,16.368,2.672,24.144
		c-85.952-4.432-162.104-46.6-213.144-110.824c-8.904,15.712-14,33.952-14,53.376c0,36.776,18.128,69.216,45.88,88.232
		c-16.928-0.512-30.976-5.336-46.976-13.224v1.32c0,51.384,35.76,94.248,83.104,103.944c-8.68,2.496-17.76,3.736-27.192,3.736
		c-6.648,0-13.144-0.64-19.424-1.872c13.168,42.096,51.344,72.776,96.608,73.592c-35.368,28.456-79.992,45.416-128.416,45.416
		c-8.32,0-16.592-0.48-24.672-1.472c45.776,30.032,100.152,47.6,158.512,47.6c190.216,0,294.208-161.52,294.208-301.656
		c0-4.592-0.104-9.216-0.264-13.736c20.192-14.952,37.744-33.6,51.552-54.864c-18.512,8.424-38.464,14.136-59.384,16.688
		C466,98.156,482.4,77.372,490.112,52.636z"/>
</g>
<g>
	<path style="fill:#169FDB;" d="M504.008,94.588c-18.512,8.424-38.464,14.136-59.384,16.688
		c21.376-13.12,37.784-33.904,45.488-58.648c-20,12.128-42.088,20.96-65.704,25.704C405.6,57.716,378.704,44.86,348.936,44.86
		c-57.064,0-103.36,47.472-103.36,106.016c0,8.32,0.888,16.368,2.672,24.144c-0.056,0-0.12-0.016-0.12-0.016l155.424,155.488
		c32.368-51.328,49.168-111.032,49.168-167.296c0-4.592-0.104-9.216-0.264-13.736C472.648,134.508,490.2,115.852,504.008,94.588z"/>
	<path style="fill:#169FDB;" d="M153.008,373.38c-35.36,28.408-79.952,45.336-128.328,45.336c-8.32,0-16.592-0.48-24.68-1.472
		c45.776,30.032,100.152,47.6,158.512,47.6c27.296,0,52.752-3.408,76.44-9.528L153.008,373.38z"/>
</g>
<g>
	<path style="fill:#3DC8F9;" d="M490.112,52.636c-20,12.128-42.088,20.96-65.704,25.704c-18.808-20.616-45.704-33.472-75.472-33.472
		c-57.064,0-103.36,47.472-103.36,106.016c0,8.32,0.888,16.368,2.672,24.144c-70.744-3.64-134.832-32.904-183.752-78.936
		c50.24,53.064,119.184,87.216,196,91.176c-1.784-7.768-2.672-15.824-2.672-24.128c0-58.56,46.296-106.032,103.368-106.032
		c29.76,0,56.656,12.864,75.464,33.472"/>
	<path style="fill:#3DC8F9;" d="M89.208,300.724c-4.336,0.568-8.752,0.864-13.232,0.864c-6.648,0-13.176-0.64-19.464-1.872
		c6.104,19.488,17.6,36.472,32.632,49.24c-9.04-10.688-16.064-23.216-20.376-37"/>
</g>
<path style="fill:#24A9E6;" d="M486.432,117.628c6.328-7.312,12.304-14.904,17.576-23.04c-7.536,3.432-15.384,6.288-23.376,8.792"/>
<g>
	<path style="fill:#3DC8F9;" d="M10.376,420.588c-2.168-0.28-5.616-0.696-7.976-1.784c6.896,4.472,12.744,8.016,20,11.92
		c4.816,0.336,9.664,1.632,14.536,1.632c48.424,0,93.04-20.344,128.424-44.344c-0.064,0-0.112,0-0.168,0
		C118.816,412.012,66.904,427.748,10.376,420.588z"/>
	<path style="fill:#3DC8F9;" d="M58.856,199.38c-15.832-18.64-25.504-42.92-25.504-69.552c0-18.88,4.848-36.616,13.296-52.016
		c-3.968-4.432-7.84-8.944-11.544-13.6c-8.904,15.712-14,33.952-14,53.376C21.104,150.524,35.832,179.94,58.856,199.38z"/>
	<path style="fill:#3DC8F9;" d="M66.984,205.812c-16.008-0.904-30.976-5.728-46.976-13.224v1.32
		c0,32.936,14.664,62.32,37.632,81.744c-15.792-18.608-21.632-42.888-21.632-69.496v-2.144"/>
	<path style="fill:#3DC8F9;" d="M211.176,122.356c0,0,15.656-47.952-71.432-72.416c0,0,7.384,39.4,29.848,58.712
		C194.056,129.692,211.176,122.356,211.176,122.356z"/>
	<path style="fill:#3DC8F9;" d="M228.976,102.964c0,0,18.088-10.56-2.184-42.2c0,0-8.592,14.272-6.96,26.472
		C221.624,100.508,228.976,102.964,228.976,102.964z"/>
	<path style="fill:#3DC8F9;" d="M152.616,127.612c0,0-19.064,8.712-33.272-26.072c0,0,16.608,1.192,25.656,9.544
		C154.832,120.196,152.616,127.612,152.616,127.612z"/>
</g>
<g>
	<path style="fill:#24A9E6;" d="M232.92,162.916c0,0-19.608,7.416-31.448-28.248c0,0,16.496,2.304,24.952,11.24
		C235.624,155.668,232.92,162.916,232.92,162.916z"/>
	<circle style="fill:#24A9E6;" cx="182.312" cy="139.964" r="7.832"/>
	<circle style="fill:#24A9E6;" cx="132.408" cy="80.276" r="2.936"/>
	<circle style="fill:#24A9E6;" cx="194.544" cy="40.644" r="1.472"/>
</g>
<circle style="fill:#3DC8F9;" cx="200.416" cy="63.148" r="5.384"/>
<g>
</g>
<g>
</g>
<g>
</g>
<g>
</g>
<g>
</g>
<g>
</g>
<g>
</g>
<g>
</g>
<g>
</g>
<g>
</g>
<g>
</g>
<g>
</g>
<g>
</g>
<g>
</g>
<g>
</g>
</svg>
