<?xml version="1.0" encoding="iso-8859-1"?>
<!-- Generator: Adobe Illustrator 19.0.0, SVG Export Plug-In . SVG Version: 6.00 Build 0)  -->
<svg version="1.1" id="Layer_1" xmlns="http://www.w3.org/2000/svg" xmlns:xlink="http://www.w3.org/1999/xlink" x="0px" y="0px"
	 viewBox="0 0 512.755 512.755" style="enable-background:new 0 0 512.755 512.755;" xml:space="preserve">
<radialGradient id="SVGID_1_" cx="149.02" cy="787.9035" r="516.91" gradientTransform="matrix(1 0 0 1 0 -276.95)" gradientUnits="userSpaceOnUse">
	<stop  offset="0" style="stop-color:#FFD676"/>
	<stop  offset="0.246" style="stop-color:#F2A454"/>
	<stop  offset="0.379" style="stop-color:#F05C3C"/>
	<stop  offset="0.7" style="stop-color:#C22F86"/>
	<stop  offset="0.957" style="stop-color:#6666AD"/>
	<stop  offset="0.985" style="stop-color:#5C6CB2"/>
</radialGradient>
<path style="fill:url(#SVGID_1_);" d="M512.746,400.132c0,61.908-49.94,112.097-111.551,112.097H111.567
	C49.94,512.229,0,462.04,0,400.132V112.623C0,50.715,49.94,0.526,111.567,0.526h289.637c61.611,0,111.551,50.189,111.551,112.097
	v287.508L512.746,400.132L512.746,400.132z"/>
<linearGradient id="SVGID_2_" gradientUnits="userSpaceOnUse" x1="-5.8953" y1="311.5585" x2="299.0447" y2="569.4085" gradientTransform="matrix(1 0 0 1 0 -276.95)">
	<stop  offset="0" style="stop-color:#FFD676"/>
	<stop  offset="0.246" style="stop-color:#F2A454"/>
	<stop  offset="0.379" style="stop-color:#F05C3C"/>
	<stop  offset="0.7" style="stop-color:#C22F86"/>
	<stop  offset="0.957" style="stop-color:#6666AD"/>
	<stop  offset="0.985" style="stop-color:#5C6CB2"/>
</linearGradient>
<path style="fill:url(#SVGID_2_);" d="M339.183,71.672H173.564c-56.261,0-101.903,45.634-101.903,101.911v165.587
	c0,56.277,45.642,101.911,101.903,101.911h165.611c56.277,0,101.903-45.634,101.903-101.911V173.576
	C441.078,117.306,395.452,71.672,339.183,71.672z"/>
<linearGradient id="SVGID_3_" gradientUnits="userSpaceOnUse" x1="343.1459" y1="918.5333" x2="278.886" y2="467.3533" gradientTransform="matrix(1 0 0 1 0 -276.95)">
	<stop  offset="0" style="stop-color:#FFD676"/>
	<stop  offset="0.246" style="stop-color:#F2A454"/>
	<stop  offset="0.379" style="stop-color:#F05C3C"/>
	<stop  offset="0.7" style="stop-color:#C22F86"/>
	<stop  offset="0.957" style="stop-color:#6666AD"/>
	<stop  offset="0.985" style="stop-color:#5C6CB2"/>
</linearGradient>
<path style="fill:url(#SVGID_3_);" d="M339.183,71.672H173.564c-28.556,0-54.35,11.792-72.841,30.733l305.67,313.229
	c21.214-18.676,34.685-45.963,34.685-76.472V173.576C441.078,117.306,395.452,71.672,339.183,71.672z"/>
<radialGradient id="SVGID_4_" cx="373.065" cy="434.6615" r="19.957" gradientTransform="matrix(1 0 0 1 0 -276.95)" gradientUnits="userSpaceOnUse">
	<stop  offset="0" style="stop-color:#FFD676"/>
	<stop  offset="0.246" style="stop-color:#F2A454"/>
	<stop  offset="0.379" style="stop-color:#F05C3C"/>
	<stop  offset="0.7" style="stop-color:#C22F86"/>
	<stop  offset="0.957" style="stop-color:#6666AD"/>
	<stop  offset="0.985" style="stop-color:#5C6CB2"/>
</radialGradient>
<path style="opacity:0.4;fill:url(#SVGID_4_);enable-background:new    ;" d="M393.026,157.711c0,11.029-8.957,19.953-19.953,19.953
	c-11.013,0-19.969-8.924-19.969-19.953c0-11.021,8.957-19.953,19.969-19.953C384.062,137.75,393.026,146.69,393.026,157.711z"/>
<radialGradient id="SVGID_5_" cx="286.04" cy="788.3855" r="322.18" gradientTransform="matrix(1 0 0 1 0 -276.95)" gradientUnits="userSpaceOnUse">
	<stop  offset="0" style="stop-color:#FFD676"/>
	<stop  offset="0.246" style="stop-color:#F2A454"/>
	<stop  offset="0.379" style="stop-color:#F05C3C"/>
	<stop  offset="0.7" style="stop-color:#C22F86"/>
	<stop  offset="0.957" style="stop-color:#6666AD"/>
	<stop  offset="0.985" style="stop-color:#5C6CB2"/>
</radialGradient>
<path style="opacity:0.4;fill:url(#SVGID_5_);enable-background:new    ;" d="M512.746,400.132v-19.977l-186.271-186.28
	l-133.32,131.93L379.571,512.22h21.624C462.807,512.22,512.746,462.039,512.746,400.132z"/>
<g style="opacity:0.3;">
	
		<radialGradient id="SVGID_6_" cx="271.6715" cy="548.622" r="196.7565" gradientTransform="matrix(1 0 0 1 0 -276.95)" gradientUnits="userSpaceOnUse">
		<stop  offset="0" style="stop-color:#FFD676"/>
		<stop  offset="0.246" style="stop-color:#F2A454"/>
		<stop  offset="0.379" style="stop-color:#F05C3C"/>
		<stop  offset="0.7" style="stop-color:#C22F86"/>
		<stop  offset="0.957" style="stop-color:#6666AD"/>
		<stop  offset="0.985" style="stop-color:#5C6CB2"/>
	</radialGradient>
	<path style="fill:url(#SVGID_6_);" d="M354.477,468.426H188.866c-62.832,0-113.953-51.12-113.953-113.961V188.878
		c0-62.832,51.112-113.961,113.953-113.961h165.611c62.832,0,113.953,51.12,113.953,113.961v165.587
		C468.422,417.297,417.309,468.426,354.477,468.426z M188.866,99.016c-49.546,0-89.854,40.308-89.854,89.862v165.587
		c0,49.546,40.308,89.862,89.854,89.862h165.611c49.546,0,89.854-40.308,89.854-89.862V188.878
		c0-49.546-40.308-89.862-89.854-89.862C354.477,99.016,188.866,99.016,188.866,99.016z"/>
</g>
<g style="opacity:0.3;">
	
		<radialGradient id="SVGID_7_" cx="271.667" cy="548.6215" r="93.867" gradientTransform="matrix(1 0 0 1 0 -276.95)" gradientUnits="userSpaceOnUse">
		<stop  offset="0" style="stop-color:#FFD676"/>
		<stop  offset="0.246" style="stop-color:#F2A454"/>
		<stop  offset="0.379" style="stop-color:#F05C3C"/>
		<stop  offset="0.7" style="stop-color:#C22F86"/>
		<stop  offset="0.957" style="stop-color:#6666AD"/>
		<stop  offset="0.985" style="stop-color:#5C6CB2"/>
	</radialGradient>
	<path style="fill:url(#SVGID_7_);" d="M271.667,365.534c-51.755,0-93.871-42.108-93.871-93.863s42.116-93.863,93.871-93.863
		s93.871,42.108,93.871,93.863S323.43,365.534,271.667,365.534z M271.667,201.907c-38.469,0-69.772,31.296-69.772,69.764
		s31.296,69.764,69.772,69.764s69.772-31.296,69.772-69.764S310.136,201.907,271.667,201.907z"/>
</g>
<path style="fill:#FFFFFF;" d="M339.183,453.123H173.564c-62.832,0-113.953-51.12-113.953-113.961V173.576
	c0-62.832,51.112-113.961,113.953-113.961h165.611c62.832,0,113.953,51.12,113.953,113.961v165.587
	C453.127,402.003,402.015,453.123,339.183,453.123z M173.564,83.721c-49.546,0-89.854,40.308-89.854,89.862v165.587
	c0,49.546,40.308,89.862,89.854,89.862h165.611c49.546,0,89.854-40.308,89.854-89.862V173.576c0-49.546-40.308-89.862-89.854-89.862
	H173.564V83.721z"/>
<linearGradient id="SVGID_8_" gradientUnits="userSpaceOnUse" x1="419.4696" y1="396.4139" x2="220.0096" y2="563.8539" gradientTransform="matrix(1 0 0 1 0 -276.95)">
	<stop  offset="0" style="stop-color:#FFD676"/>
	<stop  offset="0.246" style="stop-color:#F2A454"/>
	<stop  offset="0.379" style="stop-color:#F05C3C"/>
	<stop  offset="0.7" style="stop-color:#C22F86"/>
	<stop  offset="0.957" style="stop-color:#6666AD"/>
	<stop  offset="0.985" style="stop-color:#5C6CB2"/>
</linearGradient>
<circle style="fill:url(#SVGID_8_);" cx="256.37" cy="256.38" r="81.82"/>
<linearGradient id="SVGID_9_" gradientUnits="userSpaceOnUse" x1="293.2179" y1="688.8617" x2="222.2179" y2="398.7117" gradientTransform="matrix(1 0 0 1 0 -276.95)">
	<stop  offset="0" style="stop-color:#FFD676"/>
	<stop  offset="0.246" style="stop-color:#F2A454"/>
	<stop  offset="0.379" style="stop-color:#F05C3C"/>
	<stop  offset="0.7" style="stop-color:#C22F86"/>
	<stop  offset="0.957" style="stop-color:#6666AD"/>
	<stop  offset="0.985" style="stop-color:#5C6CB2"/>
</linearGradient>
<path style="fill:url(#SVGID_9_);" d="M174.552,256.378c0,45.184,36.637,81.814,81.822,81.814s81.822-36.621,81.822-81.822
	L174.552,256.378z"/>
<g>
	<path style="fill:#FFFFFF;" d="M256.373,350.24c-51.755,0-93.871-42.108-93.871-93.863s42.116-93.863,93.871-93.863
		s93.871,42.108,93.871,93.863S308.128,350.24,256.373,350.24z M256.373,186.613c-38.469,0-69.772,31.296-69.772,69.764
		s31.296,69.764,69.772,69.764s69.772-31.296,69.772-69.764S294.842,186.613,256.373,186.613z"/>
	<path style="fill:#FFFFFF;" d="M384.021,148.706c0,11.029-8.957,19.953-19.953,19.953c-11.013,0-19.969-8.924-19.969-19.953
		c0-11.021,8.957-19.953,19.969-19.953C375.057,128.745,384.021,137.685,384.021,148.706z"/>
</g>
<g>
</g>
<g>
</g>
<g>
</g>
<g>
</g>
<g>
</g>
<g>
</g>
<g>
</g>
<g>
</g>
<g>
</g>
<g>
</g>
<g>
</g>
<g>
</g>
<g>
</g>
<g>
</g>
<g>
</g>
</svg>
