<?xml version="1.0" encoding="iso-8859-1"?>
<!-- Generator: Adobe Illustrator 19.0.0, SVG Export Plug-In . SVG Version: 6.00 Build 0)  -->
<svg version="1.1" id="Layer_1" xmlns="http://www.w3.org/2000/svg" xmlns:xlink="http://www.w3.org/1999/xlink" x="0px" y="0px"
	 viewBox="0 0 496 496" style="enable-background:new 0 0 496 496;" xml:space="preserve">
<path style="fill:#7FD371;" d="M248.08,0h-0.152l0,0C111.216,0,0,111.224,0,247.992c0,54.232,17.504,104.528,47.224,145.36
	l-30.888,92.152l95.312-30.472c39.2,25.952,86,40.968,136.432,40.968C384.8,496,496,384.752,496,248C496,111.232,384.8,0,248.08,0z
	 M392.368,350.2c-5.96,16.904-29.728,30.904-48.672,35c-12.976,2.76-29.88,4.952-86.864-18.672
	c-72.888-30.176-119.824-104.24-123.464-109.064c-3.504-4.808-29.448-39.216-29.448-74.792s18.072-52.928,25.368-60.368
	c5.976-6.12,15.888-8.872,25.36-8.872c3.072,0,5.824,0.144,8.312,0.272c7.288,0.304,10.928,0.752,15.736,12.256
	c5.976,14.424,20.552,50.008,22.304,53.648c1.744,3.648,3.504,8.6,1.016,13.408c-2.336,4.96-4.368,7.168-8.008,11.384
	c-3.656,4.216-7.16,7.44-10.792,11.952c-3.352,3.936-7.152,8.168-2.912,15.456c4.232,7.16,18.8,30.912,40.224,50
	c27.688,24.64,50.136,32.52,58.16,35.872c5.968,2.488,13.12,1.888,17.496-2.768c5.536-5.984,12.392-15.888,19.384-25.656
	c4.952-7.016,11.224-7.88,17.776-5.408c6.712,2.328,42.144,19.832,49.432,23.48c7.272,3.648,12.088,5.392,13.832,8.456
	C398.352,318.864,398.352,333.288,392.368,350.2z"/>
<path style="fill:#6DBC61;" d="M0,247.992c0,54.232,17.504,104.528,47.224,145.36l-30.888,92.152l95.312-30.472
	c39.2,25.952,86,40.968,136.432,40.968C384.8,496,496,384.752,496,248C496,111.232,384.8,0,248.08,0h-0.152l0,0 M392.368,350.2
	c-5.96,16.904-29.728,30.904-48.672,35c-12.976,2.76-29.88,4.952-86.864-18.672c-72.888-30.176-119.824-104.24-123.464-109.064
	c-3.504-4.808-29.448-39.216-29.448-74.792s18.072-52.928,25.368-60.368c5.976-6.12,15.888-8.872,25.36-8.872
	c3.072,0,5.824,0.144,8.312,0.272c7.288,0.304,10.928,0.752,15.736,12.256c5.976,14.424,20.552,50.008,22.304,53.648
	c1.744,3.648,3.504,8.6,1.016,13.408c-2.336,4.96-4.368,7.168-8.008,11.384c-3.656,4.216-7.16,7.44-10.792,11.952
	c-3.352,3.936-7.152,8.168-2.912,15.456c4.232,7.16,18.8,30.912,40.224,50c27.688,24.64,50.136,32.52,58.16,35.872
	c5.968,2.488,13.12,1.888,17.496-2.768c5.536-5.984,12.392-15.888,19.384-25.656c4.952-7.016,11.224-7.88,17.776-5.408
	c6.712,2.328,42.144,19.832,49.432,23.48c7.272,3.648,12.088,5.392,13.832,8.456C398.352,318.864,398.352,333.288,392.368,350.2z"/>
<g>
	<path style="fill:#549B45;" d="M327.368,13.08C390.6,67.136,431.872,149.76,431.872,219.712c0,38.528-12.552,74.576-34.352,105.544
		c-0.288,6.392-1.704,15.216-5.16,24.944c-5.96,16.904-29.728,30.904-48.672,35c-3.504,0.744-7.336,1.432-12.128,1.584
		c-41.504,25.88-92.944,41.2-148.664,41.2c-50.176,0-96.856-12.456-135.96-33.832l-30.6,91.352l95.312-30.472
		c39.2,25.952,86,40.968,136.432,40.968C384.8,496,496,384.752,496,248C496,138.976,425.296,46.24,327.368,13.08z"/>
	<path style="fill:#549B45;" d="M333.336,283.856c1.664,0.576,5.056,2.08,9.344,4.056l-165.728-165.72
		c0.576,1.096,1.16,2.352,1.744,3.776c5.976,14.424,20.552,50.008,22.304,53.648c1.744,3.648,3.504,8.6,1.016,13.408
		c-2.336,4.96-4.368,7.168-8.008,11.384c-3.656,4.216-7.16,7.44-10.792,11.952c-3.352,3.936-7.152,8.168-2.912,15.456
		c4.232,7.16,18.8,30.912,40.224,50c27.688,24.64,50.136,32.52,58.16,35.872c5.968,2.488,13.12,1.888,17.496-2.768
		c5.536-5.984,12.392-15.888,19.384-25.656C320.512,282.248,326.792,281.384,333.336,283.856z"/>
</g>
<path style="fill:#5CAA4F;" d="M103.936,182.896l-1.632,1.64l1.784,1.776C104.024,185.176,103.936,184.04,103.936,182.896z"/>
<g>
</g>
<g>
</g>
<g>
</g>
<g>
</g>
<g>
</g>
<g>
</g>
<g>
</g>
<g>
</g>
<g>
</g>
<g>
</g>
<g>
</g>
<g>
</g>
<g>
</g>
<g>
</g>
<g>
</g>
</svg>
