<?xml version="1.0" encoding="iso-8859-1"?>
<!-- Generator: Adobe Illustrator 19.0.0, SVG Export Plug-In . SVG Version: 6.00 Build 0)  -->
<svg version="1.1" id="Layer_1" xmlns="http://www.w3.org/2000/svg" xmlns:xlink="http://www.w3.org/1999/xlink" x="0px" y="0px"
	 viewBox="0 0 479.28 479.28" style="enable-background:new 0 0 479.28 479.28;" xml:space="preserve">
<path style="fill:#1D5DAA;" d="M239.008,1.576c-131.984,0-237.376,107.016-237.376,239c0,120,85.368,219.328,205.368,236.392V327.64
	h-56v-64h56v-48.832c0-53.624,32.272-82.816,80.112-82.816c22.912,0,39.888,1.704,47.888,2.472v56.032l-33.064,0.016
	c-26.008,0-30.936,12.376-30.936,30.496v42.632h59.48l-8.088,64H271v150.064c112-14.512,208.28-115.112,208.28-237.128
	C479.28,108.592,370.992,1.576,239.008,1.576z"/>
<path style="fill:#064D93;" d="M408,71.576c-93.328-93.328-244.672-93.328-338,0l137.28,137.272
	C209.608,159.92,240.44,132,285.48,132c22.912,0,41.52,1.704,49.52,2.472v56.032l-33.064,0.016
	c-26.008,0-30.936,12.376-30.936,30.496v42.624h59.48l-8.088,64h-0.288l84.632,82.68C500.056,316.992,501.328,164.904,408,71.576z"
	/>
<path style="fill:#3E78CC;" d="M14,254.576c0-131.984,107.024-239,239.008-239c62.432,0,119.24,23.968,161.832,63.168
	C371.16,31.304,308.568,1.576,239.008,1.576C107.024,1.576,0,108.592,0,240.576C0,310.12,29.752,372.72,77.168,416.408
	C37.976,373.824,14,317,14,254.576z"/>
<g>
	<path style="fill:#064D93;" d="M271,325.184V442l28.736,30c29.04-7.44,55.6-21.168,79.296-38.152L271,325.184z"/>
	<polygon style="fill:#064D93;" points="207,327.64 151.232,327.64 152.288,326.216 207,377.312 	"/>
</g>
<g>
	<circle style="fill:#5397EA;" cx="83.832" cy="115.544" r="8.664"/>
	<circle style="fill:#5397EA;" cx="83.832" cy="173.048" r="8.664"/>
	<circle style="fill:#5397EA;" cx="145.336" cy="115.544" r="8.664"/>
</g>
<g>
	<circle style="fill:#1D5DAA;" cx="228.336" cy="61.544" r="8.664"/>
	<circle style="fill:#1D5DAA;" cx="393.8" cy="142.232" r="8.672"/>
	<circle style="fill:#1D5DAA;" cx="306.944" cy="77.072" r="4.832"/>
</g>
<circle style="fill:#5397EA;" cx="86.784" cy="353.24" r="4.832"/>
<circle style="fill:#1D5DAA;" cx="154.28" cy="71.72" r="2.112"/>
<g>
	<circle style="fill:#5397EA;" cx="83.832" cy="261.544" r="8.664"/>
	<path style="fill:#5397EA;" d="M87,255.248c0,1.504-2.512,2.704-4.008,2.704l0,0c-1.48,0-3.992-1.2-3.992-2.704V120.92
		c0-1.504,2.512-2.704,3.992-2.704l0,0c1.504,0,4.008,1.2,4.008,2.704V255.248z"/>
	<path style="fill:#5397EA;" d="M142.672,111.64c1.488,0,2.696,2.496,2.704,4l0,0c-0.016,1.488-1.216,4-2.704,4H88.328
		c-1.496,0-2.704-2.512-2.704-4l0,0c0-1.504,1.208-4,2.704-4H142.672z"/>
	<circle style="fill:#5397EA;" cx="125.336" cy="173.048" r="8.664"/>
	<path style="fill:#5397EA;" d="M122.064,167.64c0.984,0,1.816,2.504,1.816,4.008l0,0c-0.024,1.488-0.832,3.992-1.816,3.992H85.456
		c-1,0-1.832-2.504-1.832-3.992l0,0c0-1.504,0.832-4.008,1.832-4.008H122.064z"/>
	<circle style="fill:#5397EA;" cx="394.2" cy="363.72" r="8.672"/>
	<circle style="fill:#5397EA;" cx="332.672" cy="363.72" r="8.672"/>
	<circle style="fill:#5397EA;" cx="394.2" cy="217.72" r="8.672"/>
	<path style="fill:#5397EA;" d="M391,224.032c0-1.504,2.496-2.704,4-2.704l0,0c1.488,0,4,1.2,4,2.704V358.36
		c0,1.504-2.512,2.704-4,2.704l0,0c-1.504,0-4-1.2-4-2.704V224.032z"/>
	<path style="fill:#5397EA;" d="M335.344,367.64c-1.488,0-2.704-2.496-2.704-4l0,0c0.016-1.488,1.216-4,2.704-4h54.344
		c1.488,0,2.704,2.512,2.704,4l0,0c0,1.504-1.216,4-2.704,4H335.344z"/>
</g>
<g>
</g>
<g>
</g>
<g>
</g>
<g>
</g>
<g>
</g>
<g>
</g>
<g>
</g>
<g>
</g>
<g>
</g>
<g>
</g>
<g>
</g>
<g>
</g>
<g>
</g>
<g>
</g>
<g>
</g>
</svg>
