<?xml version="1.0" encoding="iso-8859-1"?>
<!-- Generator: Adobe Illustrator 19.0.0, SVG Export Plug-In . SVG Version: 6.00 Build 0)  -->
<svg version="1.1" id="Layer_1" xmlns="http://www.w3.org/2000/svg" xmlns:xlink="http://www.w3.org/1999/xlink" x="0px" y="0px"
	 viewBox="0 0 491.996 491.996" style="enable-background:new 0 0 491.996 491.996;" xml:space="preserve">
<path style="fill:#FFEB5A;" d="M482.338,356.682c-65.768-10.816-95.392-78.2-96.608-81.056c-0.096-0.192-0.184-0.384-0.28-0.568
	c-3.36-6.8-4.128-12.424-2.312-16.712c3.592-8.432,17.376-12.792,26.472-15.68c2.656-0.832,5.144-1.616,7.216-2.424
	c8.968-3.536,15.392-7.376,19.624-11.736c5.064-5.184,6.032-10.168,5.968-13.416c-0.16-7.872-6.184-14.872-15.8-18.304
	c-3.232-1.344-6.952-2.04-10.704-2.04c-2.56,0-6.36,0.352-9.952,2.024c-7.704,3.592-14.608,5.544-20.512,5.832
	c-3.128-0.168-5.344-0.848-6.784-1.496c0.168-3.08,0.376-6.224,0.592-9.512l0.08-1.408c2.112-33.296,4.736-74.736-6.28-99.344
	c-7.528-16.84-17.64-31.328-30.08-43.088c-10.44-9.848-22.544-17.096-36.016-23c-23.44-10.24-45.296-11.048-56.232-11.048h-0.016
	c-0.44,0-0.832,0-1.2,0c-3.032,0-9.336-0.88-9.776-0.88c-10.92,0-31.472,1.416-54.944,11.752
	c-13.408,5.896-25.488,13.704-35.872,23.544c-12.376,11.72-23.792,26.08-31.296,42.864c-11,24.6-7.624,65.912-7.624,99.2v0.048
	c0,3.552,1.792,7.28,2.008,10.904c-1.624,0.736-3.56,1.512-7.416,1.512c-6.2,0-13.248-1.976-21.592-5.872
	c-2.456-1.144-5.096-1.704-8.176-1.704c-4.952,0-10.104,1.456-14.656,4.112c-5.72,3.352-9.368,8.072-10.368,13.312
	c-0.656,3.464-0.6,10.328,7.024,17.264c4.2,3.816,10.384,7.336,18.336,10.488c2.096,0.808,4.568,1.6,7.208,2.424
	c9.096,2.888,22.888,7.248,26.488,15.696c1.832,4.272,1.048,9.896-2.312,16.704c-0.096,0.192-0.184,0.376-0.264,0.56
	c-0.84,1.952-8.672,19.664-24.768,38.344c-9.128,10.608-19.184,19.496-29.888,26.368c-13.048,8.424-27.168,13.92-41.984,16.352
	c-5.816,0.944-9.952,6.12-9.624,11.984c0.08,1.68,0.496,3.368,1.168,5l0.016,0.04c2.36,5.472,7.816,10.128,16.656,14.24
	c10.84,5.008,27.016,9.224,48.128,12.536c1.064,2.008,2.168,7.096,2.936,10.568c0.8,3.696,1.64,7.496,2.832,11.528
	c1.28,4.376,4.624,9.6,13.184,9.6c3.248,0,7-0.72,11.312-1.56c6.328-1.24,15-2.936,25.816-2.936c5.984,0,12.216,0.528,18.472,1.568
	c12.064,1.992,22.44,9.32,34.472,17.8c17.608,12.416,37.512,26.448,67.968,26.448c0.832,0,1.656-0.016,2.488-0.088
	c1,0.048,2.248,0.088,3.56,0.088c30.456,0,50.376-14.048,67.952-26.448l0.032-0.024c12.016-8.472,22.408-15.784,34.456-17.776
	c6.248-1.04,12.472-1.568,18.472-1.568c10.328,0,18.496,0.256,25.816,1.672c4.752,0.944,8.456,0.336,11.304,0.336h0.28h0.28
	c6.264,0,10.872-2.368,12.64-8.376c1.16-3.952,2-7.144,2.816-10.896c0.72-3.248,1.856-8.2,2.92-10.256
	c21.128-3.304,37.296-7.376,48.144-12.4c8.832-4.088,14.264-8.672,16.624-14.128c0.72-1.632,1.128-3.296,1.216-5.016
	C492.306,362.762,488.17,357.634,482.338,356.682z"/>
<path style="fill:#FCDF31;" d="M110.002,189.706v0.52c0,3.552,1.792,7.28,2.008,10.904c-1.624,0.736-3.56,1.512-7.416,1.512
	c-6.2,0-13.248-1.976-21.592-5.872c-2.456-1.144-5.096-1.704-8.176-1.704c-4.952,0-10.104,1.456-14.656,4.112
	c-5.72,3.352-9.368,8.072-10.368,13.312c-0.656,3.464-0.6,10.328,7.024,17.264c4.2,3.816,10.384,7.336,18.336,10.488
	c2.096,0.808,4.568,1.6,7.208,2.424c9.096,2.888,22.888,7.248,26.488,15.696c1.832,4.272,1.048,9.896-2.312,16.704
	c-0.096,0.192-0.184,0.376-0.264,0.56c-0.84,1.952-8.672,19.664-24.768,38.344c-9.128,10.608-19.184,19.496-29.888,26.368
	c-13.048,8.424-27.168,13.92-41.984,16.352c-5.816,0.944-9.952,6.12-9.624,11.984c0.08,1.68,0.496,3.368,1.168,5l0.016,0.04
	c2.36,5.472,7.816,10.128,16.656,14.24c10.84,5.008,27.016,9.224,48.128,12.536c1.064,2.008,2.168,7.096,2.936,10.568
	c0.8,3.696,1.64,7.496,2.832,11.528c1.28,4.376,4.624,9.6,13.184,9.6c3.248,0,7-0.72,11.312-1.56c6.328-1.24,15-2.936,25.816-2.936
	c5.984,0,12.216,0.528,18.472,1.568c12.064,1.992,22.44,9.32,34.472,17.8c17.608,12.416,37.512,26.448,67.968,26.448
	c0.832,0,1.656-0.016,2.488-0.088c1,0.048,2.248,0.088,3.56,0.088c30.456,0,50.376-14.048,67.952-26.448l0.032-0.024
	c12.016-8.472,22.408-15.784,34.456-17.776c6.248-1.04,12.472-1.568,18.472-1.568c10.328,0,18.496,0.256,25.816,1.672
	c4.752,0.952,8.456,0.344,11.304,0.344h0.28h0.28c6.264,0,10.872-2.368,12.64-8.376c1.16-3.952,2-7.144,2.816-10.896
	c0.72-3.248,1.856-8.2,2.92-10.256c21.128-3.304,37.296-7.376,48.144-12.4c8.832-4.088,14.264-8.672,16.624-14.128
	c0.72-1.632,1.128-3.296,1.216-5.016c0.328-5.864-3.816-11.008-9.64-11.96c-65.768-10.816-95.392-78.192-96.608-81.048
	c-0.096-0.192-0.184-0.376-0.28-0.568c-3.36-6.8-4.128-12.424-2.312-16.712c3.592-8.432,17.376-12.784,26.472-15.672
	c2.656-0.832,5.144-1.616,7.216-2.424c8.968-3.536,15.392-7.376,19.624-11.736c5.064-5.184,6.032-10.168,5.968-13.416
	c-0.16-7.872-6.184-14.872-15.8-18.304c-3.232-1.344-6.952-2.04-10.704-2.04c-2.56,0-6.36,0.352-9.952,2.024
	c-7.704,3.592-14.608,5.544-20.512,5.832c-3.128-0.168-5.344-0.848-6.784-1.496c0.168-3.08,0.376-6.224,0.592-9.512l0.08-1.408
	c2.112-33.296,4.736-74.736-6.28-99.344c-7.528-16.84-17.64-31.328-30.08-43.088c-10.44-9.848-22.544-17.096-36.016-23
	c-23.44-10.248-45.296-11.056-56.232-11.056h-0.016c-0.44,0-0.832,0-1.2,0c-3.032,0-9.336-0.88-9.776-0.88"/>
<g>
	<path style="fill:#F4C811;" d="M482.338,356.682c-65.768-10.816-95.392-78.2-96.608-81.056c-0.096-0.192-0.184-0.384-0.28-0.568
		c-3.36-6.8-4.128-12.424-2.312-16.712c3.592-8.432,17.376-12.792,26.472-15.68c2.656-0.832,5.144-1.616,7.216-2.424
		c8.968-3.536,15.392-7.376,19.624-11.736c5.064-5.184,6.032-10.168,5.968-13.416c-0.16-7.872-6.184-14.872-15.8-18.304
		c-3.232-1.344-6.952-2.04-10.704-2.04c-2.56,0-6.36,0.352-9.952,2.024c-7.704,3.592-14.608,5.544-20.512,5.832
		c-3.128-0.168-5.344-0.848-6.784-1.496c0.168-3.08,0.376-6.224,0.592-9.512l0.08-1.408c2.112-33.296,4.736-74.736-6.28-99.344
		c-7.528-16.84-17.64-31.328-30.08-43.088c-10.44-9.848-22.544-17.096-36.016-23c-23.44-10.24-45.296-11.048-56.232-11.048h-0.016
		c-0.44,0-0.832,0-1.2,0c-3.032,0-9.528-0.64-9.968-0.64l-1.544,2.144v458.192c0,0.016,2.792,0.112,3.464,0.112
		c0.832,0,2.408-0.016,3.24-0.088c1,0.048,2.632,0.088,3.944,0.088c30.456,0,50.568-14.048,68.144-26.448l0.128-0.024
		c12.016-8.472,22.456-15.784,34.496-17.776c6.248-1.04,12.496-1.568,18.496-1.568c10.328,0,18.512,0.256,25.824,1.672
		c4.76,0.944,8.472,0.336,11.32,0.336h0.28h0.28c6.264,0,10.872-2.368,12.64-8.376c1.16-3.952,2-7.144,2.816-10.896
		c0.72-3.248,1.856-8.2,2.92-10.256c21.128-3.304,37.296-7.376,48.144-12.4c8.832-4.088,14.264-8.672,16.624-14.128
		c0.72-1.632,1.128-3.296,1.216-5.016C492.306,362.762,488.17,357.634,482.338,356.682z"/>
	<path style="fill:#F4C811;" d="M482.338,356.682c-65.768-10.816-95.392-78.2-96.608-81.056c-0.096-0.192-0.184-0.384-0.28-0.568
		c-3.36-6.8-4.128-12.424-2.312-16.712c3.592-8.432,17.376-12.792,26.472-15.68c2.656-0.832,5.144-1.616,7.216-2.424
		c8.968-3.536,15.392-7.376,19.624-11.736c5.064-5.184,6.032-10.168,5.968-13.416c-0.16-7.872-6.184-14.872-15.8-18.304
		c-3.232-1.344-6.952-2.04-10.704-2.04c-2.56,0-6.36,0.352-9.952,2.024c-7.704,3.592-14.608,5.544-20.512,5.832
		c-3.128-0.168-5.344-0.848-6.784-1.496c0.168-3.08,0.376-6.224,0.592-9.512l0.08-1.408c2.112-33.296,4.736-74.736-6.28-99.344
		c-7.528-16.84-17.64-31.328-30.08-43.088c-10.44-9.848-22.544-17.096-36.016-23c-23.44-10.248-46.272-11.696-57.208-11.696
		l-0.92,0.648c-0.432,0,5.168-0.704-2.832-0.704c0,0,8,0.064,0,0.064l-8-0.24v460.576c0,0.016,2.792,0.112,3.464,0.112
		c0.832,0,2.408-0.016,3.24-0.088c1,0.048,2.632,0.088,3.944,0.088c30.456,0,50.568-14.048,68.144-26.448l0.128-0.024
		c12.016-8.472,22.456-15.784,34.496-17.776c6.248-1.04,12.496-1.568,18.496-1.568c10.328,0,18.512,0.256,25.824,1.672
		c4.76,0.944,8.472,0.336,11.32,0.336h0.28h0.28c6.264,0,10.872-2.368,12.64-8.376c1.16-3.952,2-7.144,2.816-10.896
		c0.72-3.248,1.856-8.2,2.92-10.256c21.128-3.304,37.296-7.376,48.144-12.4c8.832-4.088,14.264-8.672,16.624-14.128
		c0.72-1.632,1.128-3.296,1.216-5.016C492.306,362.762,488.17,357.634,482.338,356.682z"/>
</g>
<circle style="fill:#FCDF31;" cx="121.786" cy="466.506" r="12.664"/>
<circle style="fill:#EFAB00;" cx="77.114" cy="459.154" r="6.664"/>
<g>
	<circle style="fill:#FCDF31;" cx="49.778" cy="411.826" r="6"/>
	<circle style="fill:#FCDF31;" cx="43.122" cy="451.826" r="6"/>
</g>
<g>
	<circle style="fill:#F4C811;" cx="352.482" cy="465.146" r="10"/>
	<circle style="fill:#F4C811;" cx="371.786" cy="443.154" r="2.664"/>
	<circle style="fill:#F4C811;" cx="397.122" cy="459.154" r="4"/>
</g>
<circle style="fill:#EFAB00;" cx="431.122" cy="453.154" r="7.336"/>
<g>
	<circle style="fill:#F4C811;" cx="443.778" cy="415.146" r="4"/>
	<circle style="fill:#F4C811;" cx="480.482" cy="426.482" r="4.672"/>
	<circle style="fill:#F4C811;" cx="147.778" cy="444.498" r="4"/>
	<circle style="fill:#F4C811;" cx="175.762" cy="469.866" r="6.664"/>
</g>
<g>
	<path style="fill:#EFAB00;" d="M429.826,332.642c-29.336-23.52-43.264-55.088-44.096-57.016c-0.096-0.192-0.184-0.384-0.28-0.568
		c-3.36-6.8-4.128-12.424-2.312-16.712c2.456-5.768,9.672-9.6,16.904-12.384c-56.544,20.688-19.248,62.736,21.064,82.528
		C424.154,329.978,426.962,331.29,429.826,332.642z"/>
	<path style="fill:#EFAB00;" d="M371.274,119.482c-4.64,57.264-12.568,76.72,8.496,82.016c-0.352-0.136-0.824-0.248-1.112-0.376
		c0.168-3.08,0.376-6.224,0.592-9.512l0.08-1.408c2.112-33.296,4.736-74.736-6.28-99.344c-3.64-8.136-7.904-15.688-12.72-22.68
		C361.17,80.994,374.274,82.482,371.274,119.482z"/>
	<path style="fill:#EFAB00;" d="M362.778,413.482c-19.08-7.424-23.088,13.048-48.912,35.768c1.04-0.736,2.104-1.464,3.12-2.176
		l0.032-0.024c12.016-8.472,22.408-15.784,34.456-17.776c6.248-1.04,12.472-1.568,18.472-1.568c10.328,0,18.496,0.256,25.816,1.672
		c4.744,0.936,8.448,0.328,11.296,0.328h0.28h0.28c0.616,0,1.144,0.872,1.72,0.808C398.258,423.858,381.962,420.938,362.778,413.482
		z"/>
	<path style="fill:#EFAB00;" d="M425.994,400.442c21.128-3.304,37.296-7.504,48.144-12.528c8.832-4.088,14.264-8.744,16.624-14.192
		c0.72-1.632,1.128-3.328,1.216-5.056c0.04-0.68-0.168-1.304-0.248-1.96c-0.28,0.184-0.608,0.44-0.952,0.784
		c-14.496,14-29.6-0.496-47-0.496c-17.152,0-18.456,18.608-18.496,35.264C425.522,401.538,425.762,400.89,425.994,400.442z"/>
</g>
<path style="fill:#FFEB5A;" d="M62.402,332.642c29.336-23.52,43.264-55.088,44.096-57.016c0.096-0.192,0.184-0.384,0.28-0.568
	c3.36-6.8,4.128-12.424,2.312-16.712c-2.456-5.768-9.672-9.6-16.904-12.384c56.536,20.688,19.264,62.736-21.064,82.528
	C68.074,329.978,65.258,331.29,62.402,332.642z"/>
<g>
	<path style="fill:#F4C811;" d="M129.45,413.482c19.08-7.424,23.088,13.048,48.912,35.768c-1.04-0.736-2.104-1.464-3.12-2.176
		l-0.032-0.024c-12.016-8.472-22.408-15.784-34.456-17.776c-6.248-1.04-12.472-1.568-18.472-1.568
		c-10.328,0-18.496,0.256-25.816,1.672c-4.752,0.936-8.456,0.328-11.296,0.328h-0.288h-0.28c-0.616,0-1.144,0.872-1.72,0.808
		C93.962,423.858,110.258,420.938,129.45,413.482z"/>
	<path style="fill:#F4C811;" d="M66.226,400.442c-21.128-3.304-37.296-7.504-48.144-12.528c-8.832-4.088-14.264-8.744-16.624-14.192
		c-0.72-1.632-1.128-3.328-1.216-5.056c-0.048-0.68,0.168-1.304,0.248-1.96c0.296,0.184,0.608,0.44,0.952,0.784
		c14.496,14,29.6-0.496,47-0.496c17.152,0,18.456,18.608,18.496,35.264C66.698,401.538,66.466,400.89,66.226,400.442z"/>
</g>
<g>
</g>
<g>
</g>
<g>
</g>
<g>
</g>
<g>
</g>
<g>
</g>
<g>
</g>
<g>
</g>
<g>
</g>
<g>
</g>
<g>
</g>
<g>
</g>
<g>
</g>
<g>
</g>
<g>
</g>
</svg>
