<?xml version="1.0" encoding="iso-8859-1"?>
<!-- Generator: Adobe Illustrator 19.0.0, SVG Export Plug-In . SVG Version: 6.00 Build 0)  -->
<svg version="1.1" id="Layer_1" xmlns="http://www.w3.org/2000/svg" xmlns:xlink="http://www.w3.org/1999/xlink" x="0px" y="0px"
	 viewBox="0 0 496 496" style="enable-background:new 0 0 496 496;" xml:space="preserve">
<path style="fill:#24AEF0;" d="M487.192,250.568c0-128.792-105.88-233.232-236.56-233.232c-13.768,0-27.28,1.184-40.456,3.424
	C189.032,7.624,164.016,0,137.2,0C61.416,0,0,60.544,0,135.288c0,24.96,6.896,48.304,18.84,68.432
	c-3.12,15.12-4.784,30.824-4.784,46.848c0,128.856,105.92,233.272,236.568,233.272c14.816,0,29.272-1.352,43.336-3.912
	C313.288,490.168,335.344,496,358.824,496C434.584,496,496,435.432,496,360.736c0-21.584-5.128-41.976-14.256-60.072
	C485.328,284.496,487.192,267.768,487.192,250.568z M371.976,362.064c-10.936,15.296-27.088,27.376-48.088,35.944
	c-20.744,8.504-45.584,12.84-73.896,12.84c-33.984,0-62.464-5.896-84.72-17.536c-15.896-8.448-28.992-19.888-38.936-34.096
	c-10.056-14.256-15.128-28.44-15.128-42.152c0-8.504,3.312-15.92,9.84-21.992c6.48-6.032,14.792-9.056,24.704-9.056
	c8.112,0,15.144,2.392,20.832,7.136c5.456,4.568,10.12,11.328,13.872,19.976c4.208,9.496,8.752,17.488,13.56,23.72
	c4.672,6.096,11.344,11.184,19.864,15.176c8.56,3.968,20.152,6.04,34.352,6.04c19.56,0,35.592-4.144,47.656-12.248
	c11.8-7.904,17.512-17.448,17.512-29.128c0-9.168-3-16.416-9.112-22.104c-6.496-5.92-14.976-10.52-25.272-13.752
	c-10.76-3.272-25.336-6.864-43.392-10.6c-24.576-5.168-45.44-11.296-62-18.28c-16.976-7.112-30.64-16.96-40.648-29.296
	c-10.152-12.568-15.32-28.296-15.32-46.776c0-17.6,5.408-33.504,16.072-47.176c10.56-13.592,26.016-24.232,45.928-31.456
	c19.632-7.16,42.952-10.784,69.416-10.784c21.112,0,39.696,2.424,55.216,7.184c15.584,4.784,28.712,11.216,39.032,19.176
	c10.408,8.048,18.168,16.592,23.008,25.504c4.896,9,7.408,17.944,7.408,26.6c0,8.328-3.256,15.912-9.704,22.496
	c-6.464,6.664-14.672,10.032-24.296,10.032c-8.752,0-15.624-2.128-20.352-6.272c-4.44-3.872-9.04-9.92-14.144-18.544
	c-5.896-11.032-13.056-19.744-21.232-25.896c-7.968-5.976-21.24-8.968-39.52-8.968c-16.912,0-30.736,3.336-40.968,9.976
	c-9.856,6.352-14.672,13.68-14.672,22.36c0,5.296,1.552,9.744,4.76,13.552c3.328,4.08,8.072,7.576,14.088,10.568
	c6.208,3.08,12.632,5.544,19.04,7.272c6.568,1.816,17.584,4.488,32.728,7.928c19.168,4.024,36.752,8.6,52.28,13.512
	c15.784,4.944,29.368,11.04,40.504,18.192c11.32,7.28,20.272,16.592,26.648,27.752c6.4,11.232,9.64,25.032,9.64,41.112
	C388.544,329.232,382.944,346.736,371.976,362.064z"/>
<g>
	<path style="fill:#22D5FF;" d="M92.496,423.888c1.448,1.28,2.84,2.6,4.32,3.848c-5.056-6.016-10.352-12.6-15.696-19.536
		C84.88,413.608,88.696,418.856,92.496,423.888z"/>
	<path style="fill:#22D5FF;" d="M193.68,421.728c22.264,11.64,50.76,17.528,84.72,17.528c28.328,0,53.168-4.336,73.896-12.84
		c21.016-8.56,37.168-20.64,48.104-35.936c10.96-15.328,16.56-32.832,16.56-52.032c0-16.08-3.232-29.872-9.624-41.12
		c-6.392-11.16-15.344-20.464-26.656-27.744c-0.68-0.44-1.456-0.832-2.168-1.264c0.128,0.2,0.28,0.384,0.392,0.6
		c6.4,11.232,9.64,25.032,9.64,41.112c0,19.2-5.6,36.704-16.568,52.032c-10.936,15.296-27.088,27.376-48.088,35.944
		c-20.744,8.504-45.584,12.84-73.896,12.84c-33.984,0-62.464-5.896-84.72-17.536c-3.928-2.088-7.688-4.368-11.264-6.816
		c0.256,0.384,0.488,0.752,0.752,1.128C164.704,401.832,177.792,413.28,193.68,421.728z"/>
</g>
<path style="fill:#0B97CE;" d="M213.888,352.032c8.56,3.968,20.152,6.04,34.352,6.04c19.56,0,35.592-4.144,47.656-12.248
	c11.8-7.904,17.512-17.448,17.512-29.128c0-9.168-3-16.416-9.112-22.104c-2.528-2.296-5.424-4.336-8.52-6.224
	c-29.04,23.6-63.64,40.592-101.536,48.728C198.904,343.072,205.496,348.104,213.888,352.032z"/>
<path style="fill:#0798D8;" d="M481.744,300.664c3.584-16.168,5.456-32.896,5.456-50.096c0-81.184-42.112-152.68-105.952-194.448
	c2.648,14.352,4.104,29.112,4.104,44.232c0,50.328-15.368,97.072-41.64,135.8c2.992,1.608,5.856,3.272,8.552,5.016
	c11.32,7.28,20.272,16.592,26.648,27.752c6.4,11.232,9.64,25.032,9.64,41.112c0,19.2-5.6,36.704-16.568,52.032
	c-10.936,15.296-27.088,27.376-48.088,35.944c-20.744,8.504-45.584,12.84-73.896,12.84c-33.984,0-62.464-5.896-84.72-17.536
	c-15.896-8.448-28.992-19.888-38.936-34.096c-4.296-6.096-7.624-12.168-10.096-18.2c-34.12-3.768-66.088-14.656-94.44-31.104
	C48.432,410.016,140.784,483.84,250.632,483.84c14.816,0,29.272-1.352,43.336-3.912c19.32,10.24,41.376,16.072,64.856,16.072
	C434.584,496,496,435.432,496,360.736C496,339.16,490.872,318.768,481.744,300.664z"/>
<path style="fill:#0D83CC;" d="M483.48,291.728c-34.56,85.056-101.296,153.528-185.152,190.344
	c18.264,8.88,38.76,13.928,60.496,13.928C434.584,496,496,435.432,496,360.736c0-21.584-5.128-41.976-14.256-60.072
	C482.4,297.712,482.928,294.712,483.48,291.728z"/>
<g>
	<path style="fill:#22D5FF;" d="M279.496,22.04c22.464,2.832,43.544,7.456,62.456,13.336c-28.096-11.608-58.936-18.04-91.312-18.04
		c-10.376,0-20.608,0.68-30.664,1.96C238.56,18.6,258.632,19.416,279.496,22.04z"/>
	<path style="fill:#22D5FF;" d="M428.536,96.984c0.128,0.616,0.352,1.232,0.448,1.856c1.264,1.032,2.616,1.952,3.872,3.008
		C431.464,100.184,429.984,98.608,428.536,96.984z"/>
	<path style="fill:#22D5FF;" d="M151.424,19.376c10.912,0,21.504,1.328,31.696,3.712c8.072-1.408,16.648-2.456,25.672-3.12
		C187.936,7.336,163.44,0,137.2,0C61.416,0,0,60.544,0,135.288c0,24.96,6.896,48.304,18.84,68.432
		c-3.12,15.12-4.784,30.824-4.784,46.848c0,3.768,0.112,7.496,0.288,11.216c3.448-16.952,9-31.832,16.088-43.44
		C20.136,199.328,14.2,177.696,14.2,154.656C14.2,79.92,75.632,19.376,151.424,19.376z"/>
</g>
<g>
</g>
<g>
</g>
<g>
</g>
<g>
</g>
<g>
</g>
<g>
</g>
<g>
</g>
<g>
</g>
<g>
</g>
<g>
</g>
<g>
</g>
<g>
</g>
<g>
</g>
<g>
</g>
<g>
</g>
</svg>
