<?xml version="1.0" encoding="iso-8859-1"?>
<!-- Generator: Adobe Illustrator 19.0.0, SVG Export Plug-In . SVG Version: 6.00 Build 0)  -->
<svg version="1.1" id="Layer_1" xmlns="http://www.w3.org/2000/svg" xmlns:xlink="http://www.w3.org/1999/xlink" x="0px" y="0px"
	 viewBox="0 0 492 492" style="enable-background:new 0 0 492 492;" xml:space="preserve">
<circle style="fill:#FA9826;" cx="73.728" cy="418.296" r="69.704"/>
<g>
	<path style="fill:#EF8114;" d="M0,162.664v92.976C136,255.632,236.384,356,236.384,492h92.952C329.336,308,184,162.664,0,162.664z"
		/>
	<path style="fill:#EF8114;" d="M8,0v92.944C224,92.944,399.064,268,399.064,492H492C492,220,272,0,8,0z"/>
</g>
<g>
	<circle style="fill:#FA9826;" cx="73.728" cy="418.296" r="69.704"/>
	<path style="fill:#FA9826;" d="M0,162.664v92.976c120,0,221.8,90.008,234.672,206.008c31.864-9.2,61.2-21.456,88.248-35.672
		C294.168,275.776,160,162.664,0,162.664z"/>
	<path style="fill:#FA9826;" d="M456.168,306.848C383.624,126.624,208,0,8,0v92.944c176,0,331.84,122.304,376.88,290.928
		C414.8,359.664,439.888,337.16,456.168,306.848z"/>
	<path style="fill:#FA9826;" d="M73.728,348.584c-38.496,0-69.72,31.2-69.72,69.696c0,22.352,10.576,42.216,26.928,54.968
		c37.744-13.584,75.72-33.032,112.352-58.008C141.672,378.16,111.184,348.584,73.728,348.584z"/>
	<path style="fill:#FA9826;" d="M0,162.664v92.976c88,0,161.696,45.192,202.408,112.624c7.92-7.088,15.408-14.4,23.072-22.04
		c15.176-15.192,28.808-32.128,41.784-48.224C208.176,215.432,112,162.664,0,162.664z"/>
	<path style="fill:#FA9826;" d="M8,0v92.944c120,0,232.248,57.184,304.752,146.472c18.184-29.872,33.056-57.24,43.816-87.6
		C267.8,60.24,144,0,8,0z"/>
</g>
<g>
	<path style="fill:#F9BD28;" d="M106.512,356.776c-9.792-5.224-20.936-8.184-32.792-8.184c-38.496,0-69.72,31.2-69.72,69.696
		c0,13.384,3.84,25.84,10.376,36.472C49.632,431.704,80.976,398.184,106.512,356.776z"/>
	<path style="fill:#F9BD28;" d="M163.344,204.976C115.8,177.736,64,162.664,0,162.664v92.976c54.872,0.496,96,16.864,134.24,41.456
		C146.184,268.6,156.496,237.576,163.344,204.976z"/>
	<path style="fill:#F9BD28;" d="M8,92.944c56,0,117.504,14.64,169.4,39.752c1.128-14.736,0.84-30.216,0.84-45.392
		c0-19.192,0.528-38.04-1.256-56.504C123.888,10.928,64,0,8,0V92.944z"/>
</g>
<g>
</g>
<g>
</g>
<g>
</g>
<g>
</g>
<g>
</g>
<g>
</g>
<g>
</g>
<g>
</g>
<g>
</g>
<g>
</g>
<g>
</g>
<g>
</g>
<g>
</g>
<g>
</g>
<g>
</g>
</svg>
