<?xml version="1.0" encoding="iso-8859-1"?>
<!-- Generator: Adobe Illustrator 19.0.0, SVG Export Plug-In . SVG Version: 6.00 Build 0)  -->
<svg version="1.1" id="Layer_1" xmlns="http://www.w3.org/2000/svg" xmlns:xlink="http://www.w3.org/1999/xlink" x="0px" y="0px"
	 viewBox="0 0 488.088 488.088" style="enable-background:new 0 0 488.088 488.088;" xml:space="preserve">
<path id="SVGCleanerId_0" style="fill:#F7441C;" d="M409.776,242.284c-10.624,0-20.624,2.032-30.024,6.096
	c-1.976-23.408-9.24-44.832-21.808-64.256c-12.536-19.416-28.96-34.76-49.264-45.992c-20.312-11.216-42.248-16.84-65.784-16.84
	c-10.168,0-18.912,1.248-29.224,3.736c-4.768,1.552-5.672,6.392-5.672,14.504v254.664c0,0.928-1.144,2.04-0.44,3.272
	c0.704,1.24,0.992,2.112,2.392,2.576l200.416,0.232c21.392,0,39.552-7.736,54.856-23.168c15.336-15.456,22.864-34.104,22.864-55.952
	c0-21.688-7.672-40.24-23.008-55.704C449.784,250.012,431.296,242.284,409.776,242.284z"/>
<g>
	<path id="SVGCleanerId_0_1_" style="fill:#F7441C;" d="M409.776,242.284c-10.624,0-20.624,2.032-30.024,6.096
		c-1.976-23.408-9.24-44.832-21.808-64.256c-12.536-19.416-28.96-34.76-49.264-45.992c-20.312-11.216-42.248-16.84-65.784-16.84
		c-10.168,0-18.912,1.248-29.224,3.736c-4.768,1.552-5.672,6.392-5.672,14.504v254.664c0,0.928-1.144,2.04-0.44,3.272
		c0.704,1.24,0.992,2.112,2.392,2.576l200.416,0.232c21.392,0,39.552-7.736,54.856-23.168
		c15.336-15.456,22.864-34.104,22.864-55.952c0-21.688-7.672-40.24-23.008-55.704C449.784,250.012,431.296,242.284,409.776,242.284z
		"/>
</g>
<path style="fill:#FF7639;" d="M465.04,265.452c-15.304-15.448-33.744-23.168-55.264-23.168c-10.624,0-20.624,2.032-30.024,6.096
	c-1.976-23.408-9.24-44.832-21.808-64.256c-12.536-19.416-28.96-34.76-49.264-45.992c-20.312-11.216-42.248-16.84-65.784-16.84
	c-10.168,0-18.904,1.248-29.224,3.736c-3.704,1.224-2,3.808-2.832,9.024c6.064-0.872,6.672-0.648,12.68-0.648
	c23.528,0,45.472,5.624,65.784,16.84c20.304,11.232,36.728,26.576,49.264,45.992c12.56,19.432,19.832,40.848,21.808,64.256
	c9.4-4.064,19.4-6.096,30.024-6.096c21.52,0,39.96,7.728,55.264,23.168c15.336,15.464,22.96,34.016,22.96,55.704
	c0,21.848-7.624,40.496-22.96,55.952c-1.792,1.816-3.648,3.504-5.528,5.096c9.048-3.856,17.352-9.576,24.904-17.2
	c15.336-15.456,22.96-34.104,22.96-55.96C488,299.468,480.376,280.916,465.04,265.452z"/>
<path style="fill:#F7441C;" d="M16.856,264.988c-4.608,0-8.568,1.688-11.88,5.04C1.672,273.38,0,277.476,0,282.316v67.88
	c0,6.24,0.832,12.72,5.288,15.912c4.472,3.2,10.648,2.56,15.736,1.624c4.768-0.928,7.136-2.64,9.072-5.144
	C32,360.092,32,355.972,32,350.196v-67.88c0-4.832-0.688-8.936-4-12.288C24.704,266.676,21.632,264.988,16.856,264.988z"/>
<path style="fill:#F4921E;" d="M61.952,203.908c-4.624,0-7.144,1.672-10.44,5.032C48.208,212.284,48,216.316,48,220.988V379.22
	c0,4.512,0.128,7.904,3.288,10.176c3.136,2.256,6.472,3.4,11.392,3.4c5.08,0,9.32-1.144,12.456-3.4
	C78.312,387.124,80,383.732,80,379.22V220.988c0-4.672-2.144-8.704-5.44-12.048C71.232,205.58,66.72,203.908,61.952,203.908z"/>
<path style="fill:#F7441C;" d="M115.272,224.74c-4.792,0-9.832,1.712-13.208,5.144S96,237.444,96,242.284V387.9l0,0
	c0,0,1.32,5.624,4.552,7.872c3.232,2.264,9.392,4.8,14.48,4.8c4.904,0,11.016-1.28,14.168-3.544c3.16-2.256,6.8-5.792,6.8-10.328
	V242.284c0-4.832-3.592-8.968-6.904-12.4S119.872,224.74,115.272,224.74z"/>
<path style="fill:#F4921E;" d="M172.832,131.108c-5.08-1.256-9.304,0.224-14.224,4.456c-4.92,4.2-6.608,10.144-6.608,17.784v234.064
	l0,0c0,8.576,4.608,12.864,16,12.864s16-4.288,16-12.864V153.348C184,140.236,180.672,132.82,172.832,131.108z"/>
<path style="fill:#FF7639;" d="M28,270.028c-3.296-3.352-6.848-5.04-11.624-5.04c-4.608,0-8.328,1.688-11.64,5.04
	C1.432,273.38,0,277.476,0,282.316v27.128c0-4.832,1.672-8.936,4.976-12.288c3.312-3.352,7.272-5.04,11.88-5.04
	c4.776,0,7.84,1.688,11.144,5.04c3.312,3.344,4,7.448,4,12.28v-27.128C32,277.476,31.312,273.38,28,270.028z"/>
<path style="fill:#FFB91D;" d="M74.56,208.94c-3.328-3.36-7.6-5.032-12.368-5.032c-4.624,0-7.256,1.672-10.552,5.032
	c-3.304,3.344-3.64,7.376-3.64,12.048v27.128c0-4.672,0.208-8.704,3.512-12.048c3.296-3.36,6.536-5.032,11.168-5.032
	c4.768,0,8.92,1.672,12.24,5.032c3.304,3.336,5.08,7.368,5.08,12.04V220.98C80,216.316,77.856,212.284,74.56,208.94z"/>
<g>
	<polygon style="fill:#FF7639;" points="97.952,386.7 97.944,386.7 97.952,386.78 	"/>
	<path style="fill:#FF7639;" d="M129.096,229.884c-3.312-3.432-8.248-5.144-12.848-5.144c-4.792,0-10.312,1.712-13.696,5.144
		S96,237.444,96,242.284v27.128c0-4.832,2.68-8.968,6.064-12.4s7.936-5.144,12.72-5.144c4.608,0,10.76,1.712,14.064,5.144
		c3.312,3.424,7.152,7.56,7.152,12.392v-27.128C136,237.444,132.408,233.316,129.096,229.884z"/>
</g>
<path style="fill:#FFB91D;" d="M172.832,131.108c-5.08-1.256-9.304,0.224-14.224,4.456c-4.92,4.2-6.608,10.144-6.608,17.784v27.128
	c0-7.64,1.984-13.576,6.904-17.784c4.92-4.224,9.088-5.712,14.16-4.456c7.848,1.712,10.936,9.128,10.936,22.232V153.34
	C184,140.236,180.672,132.82,172.832,131.108z"/>
<path style="fill:#F4921E;" d="M380.072,248.26c-0.104,0.04-0.208,0.072-0.32,0.12c-1.976-23.408-9.24-44.832-21.808-64.256
	c-12.536-19.416-28.96-34.76-49.264-45.992c-20.312-11.216-42.248-16.84-65.784-16.84c-10.168,0-18.912,1.248-29.224,3.736
	c-4.768,1.552-5.672,6.392-5.672,14.504v254.664c0,0.928-1.144,2.04-0.44,3.272c0.704,1.24,0.992,2.112,2.392,2.576l19.32,0.024
	C300.272,387.332,362.552,325.86,380.072,248.26z"/>
<path style="fill:#FFB91D;" d="M213.672,142.452c10.312-2.488,19.808-3.736,29.968-3.736c23.528,0,45.096,5.624,65.408,16.84
	c20.304,11.232,36.544,26.576,49.088,45.992c10.544,16.328,17.208,34.064,20.304,53.192c0.568-2.168,1.176-4.312,1.68-6.496
	c-0.104,0.04-0.232,0.072-0.344,0.12c-1.976-23.408-9.256-44.832-21.824-64.256c-12.528-19.416-28.96-34.76-49.264-45.992
	c-20.312-11.216-42.256-16.84-65.792-16.84c-10.168,0-18.904,1.248-29.224,3.736c-4.768,1.568-5.672,6.408-5.672,14.52v17.44
	C208,148.86,208.904,144.02,213.672,142.452z"/>
<g>
	<circle style="fill:#F4921E;" cx="404.952" cy="112.22" r="17.92"/>
	<circle style="fill:#F4921E;" cx="328.88" cy="108.86" r="4.84"/>
	<circle style="fill:#F4921E;" cx="358.456" cy="136.436" r="7.264"/>
</g>
<g>
	<circle style="fill:#F7441C;" cx="368.16" cy="93.812" r="6.296"/>
	<circle style="fill:#F7441C;" cx="386.08" cy="158.236" r="3.872"/>
	<circle style="fill:#F7441C;" cx="416.56" cy="153.876" r="3.392"/>
	<circle style="fill:#F7441C;" cx="413.184" cy="205.74" r="19.376"/>
</g>
<g>
	<circle style="fill:#FFB91D;" cx="444.16" cy="131.108" r="4.84"/>
	<circle style="fill:#FFB91D;" cx="447.096" cy="162.108" r="4.84"/>
	<circle style="fill:#FFB91D;" cx="458.24" cy="194.564" r="3.392"/>
	<circle style="fill:#FFB91D;" cx="468.88" cy="142.252" r="6.296"/>
</g>
<g>
</g>
<g>
</g>
<g>
</g>
<g>
</g>
<g>
</g>
<g>
</g>
<g>
</g>
<g>
</g>
<g>
</g>
<g>
</g>
<g>
</g>
<g>
</g>
<g>
</g>
<g>
</g>
<g>
</g>
</svg>
