<?xml version="1.0" encoding="iso-8859-1"?>
<!-- Generator: Adobe Illustrator 19.0.0, SVG Export Plug-In . SVG Version: 6.00 Build 0)  -->
<svg version="1.1" id="Layer_1" xmlns="http://www.w3.org/2000/svg" xmlns:xlink="http://www.w3.org/1999/xlink" x="0px" y="0px"
	 viewBox="0 0 496 496" style="enable-background:new 0 0 496 496;" xml:space="preserve">
<path style="fill:#FB6620;" d="M483.36,191.904c-10.48-4.488-55.384,0.496-67.872-10.784c-8.792-8.12-9.352-22.824-12.808-42.416
	c-5.744-32.84-8.144-40.272-14.128-53.208C366.784,39.456,314.56,0,267.128,0H157.176C70.68,0,0,70.592,0,156.768V339.56
	C0,425.552,70.68,496,157.176,496h180.64c86.496,0,156.688-70.448,157.192-156.448l0.992-126.6
	C496,212.952,496,197.296,483.36,191.904z M159.168,128h87.168c16.632,0,30.12,11.512,30.12,27.904
	c0,16.424-13.488,28.096-30.12,28.096h-87.168c-16.632,0-30.104-11.672-30.104-28.096C129.072,139.512,142.536,128,159.168,128z
	 M336.32,368H159.168c-16.632,0-30.104-15.768-30.104-31.984c0-16.408,13.472-32.016,30.104-32.016H336.32
	c16.472,0,29.944,15.608,29.944,32.016C366.264,352.232,352.792,368,336.32,368z"/>
<path style="fill:#EF5830;" d="M483.36,191.904c-10.48-4.488-55.384,0.496-67.872-10.784c-2.784-2.576-4.688-5.888-6.184-9.736
	c-7.416,52.632-28.664,97.472-63.296,134.464c12.496,4.776,20.264,17.968,20.264,31.864c0,16.216-13.48,30.28-29.944,30.28h-75.192
	c-31.24,16-65.776,21.08-102.12,21.08c-60.256,0-115.56-21.592-159.008-56.784v7.256C0,425.552,70.68,496,157.176,496h180.64
	c86.496,0,156.688-70.448,157.192-156.448l0.992-126.6C496,212.952,496,197.296,483.36,191.904z"/>
<g>
	<path style="fill:#F9A121;" d="M159.168,208h87.168c16.632,0,30.384-28.184,30.384-44.592c0-3.408-0.16-1.808-2.032,2.44
		c-5.064,11.28-15.168,18.16-28.352,18.16h-87.168c-13.176,0-23.92-7.504-28.328-18.328c-1.744-4.624-1.864-5.36-1.864-1.952
		C128.976,180.136,142.536,208,159.168,208z"/>
	<path style="fill:#F9A121;" d="M157.176,16H267.12c47.44,0,99.656,41.144,121.432,87.184c5.984,12.936,8.384,21.208,14.128,54.056
		c3.456,19.592,4.016,34.72,12.808,42.832c12.496,11.272,57.4,6.504,67.872,10.992c10.04,4.28,12.08,15.024,12.504,19.272
		l0.136-17.44c0,0,0-15.624-12.64-21.016c-10.48-4.488-55.384,0.496-67.872-10.776c-8.792-8.12-9.352-22.816-12.808-42.408
		c-5.744-32.84-8.144-40.264-14.128-53.2C366.784,39.456,314.56,0,267.128,0H157.176C70.68,0,0,70.592,0,156.768v19.376
		C0,89.968,70.68,16,157.176,16z"/>
	<path style="fill:#F9A121;" d="M159.168,384H336.32c16.472,0,30.656-24.136,30.656-40.368c0-3.424,0.16-4.568-2.496,3.128
		C359.248,358,349.352,368,336.32,368H159.168c-13.168,0-22.544-9.504-27.544-20c-2.496-7.008-2.888-7.264-2.888-3.856
		C128.736,360.376,142.536,384,159.168,384z"/>
</g>
<g>
</g>
<g>
</g>
<g>
</g>
<g>
</g>
<g>
</g>
<g>
</g>
<g>
</g>
<g>
</g>
<g>
</g>
<g>
</g>
<g>
</g>
<g>
</g>
<g>
</g>
<g>
</g>
<g>
</g>
</svg>
