<?xml version="1.0" encoding="iso-8859-1"?>
<!-- Generator: Adobe Illustrator 19.0.0, SVG Export Plug-In . SVG Version: 6.00 Build 0)  -->
<svg version="1.1" id="Layer_1" xmlns="http://www.w3.org/2000/svg" xmlns:xlink="http://www.w3.org/1999/xlink" x="0px" y="0px"
	 viewBox="0 0 496 496" style="enable-background:new 0 0 496 496;" xml:space="preserve">
<g>
	<g>
		<rect id="SVGCleanerId_0" x="16" y="168.728" style="fill:#187FB8;" width="96" height="304"/>
	</g>
	<g>
		<rect id="SVGCleanerId_0_1_" x="16" y="168.728" style="fill:#187FB8;" width="96" height="304"/>
	</g>
</g>
<g>
	<rect id="SVGCleanerId_0_2_" x="16" y="168.728" style="fill:#1267A0;" width="96" height="304"/>
</g>
<path style="fill:#187FB8;" d="M16,340.712c24,9.616,56,17.664,96,23.88V168.728H16V340.712z"/>
<path style="fill:#2499CE;" d="M16,207.92c24,9.624,56,17.664,96,23.88v-63.072H16V207.92z"/>
<path style="fill:#187FB8;" d="M374.912,164.944c-55.4,0-94.912,29.976-94.912,51v-47.216H168.208c1.408,24,0,304,0,304H280V308.424
	c0-9.2-2.032-18.416,0.76-25.04c7.472-18.416,21.52-37.512,50.368-37.512c37.712,0,52.872,28.312,52.872,69.8v157.056h112V303.864
	C496,208.984,443.608,164.944,374.912,164.944z"/>
<path style="fill:#1267A0;" d="M374.912,164.944c-55.4,0-94.912,29.976-94.912,51v-47.216H168.208c1.408,24,0,304,0,304H280V308.424
	c0-9.2-2.032-18.416,0.76-25.04c7.472-18.416,21.52-37.512,50.368-37.512c37.712,0,52.872,28.312,52.872,69.8v157.056h112V303.864
	C496,208.984,443.608,164.944,374.912,164.944z"/>
<path style="fill:#187FB8;" d="M374.912,164.944c-55.4,0-94.912,29.976-94.912,51v-47.216H168.208
	c0.832,16,0.672,121.344,0.4,204.592c34.624,3.832,71.392,5.744,111.392,5.824v-70.72c0-9.2,0.208-11.048,0.208-11.048
	c0-28.904,22.064-51.504,50.92-51.504c37.712,0,52.872,28.312,52.872,69.8v57.808c40-4.168,77.976-10.56,112-18.824v-50.8
	C496,208.984,443.608,164.944,374.912,164.944z"/>
<g>
	<path style="fill:#2499CE;" d="M374.912,164.944c-55.4,0-94.912,29.976-94.912,51v-47.216H168.208
		c0.408,8,0.576,35.344,0.616,72.112c35.224,3.888,72.152,5.76,110.192,5.76c72.096,0,140.904-7.584,201.08-20.776
		C459.008,184.72,420.68,164.944,374.912,164.944z"/>
	<path style="fill:#2499CE;" d="M59.064,23.272C23.352,23.272,0,45.792,0,76.048c0,29.688,22.68,52.68,57.68,52.68h0.704
		c36.336,0,58.96-23.08,58.96-52.752C116.664,45.728,94.728,23.272,59.064,23.272z"/>
</g>
<path style="fill:#187FB8;" d="M59.064,52.08C23.352,52.08,0,45.792,0,76.048c0,29.688,22.68,52.68,57.68,52.68h0.704
	c36.336,0,58.96-23.08,58.96-52.752C116.664,45.728,94.728,52.08,59.064,52.08z"/>
<path style="fill:#1267A0;" d="M59.064,96.016C23.352,96.016,0,66.624,0,76.048c0,29.688,22.68,52.68,57.68,52.68h0.704
	c36.336,0,58.96-23.08,58.96-52.752C117.136,66.568,94.248,96.016,59.064,96.016z"/>
<g>
</g>
<g>
</g>
<g>
</g>
<g>
</g>
<g>
</g>
<g>
</g>
<g>
</g>
<g>
</g>
<g>
</g>
<g>
</g>
<g>
</g>
<g>
</g>
<g>
</g>
<g>
</g>
<g>
</g>
</svg>
